<svg width="668" height="190" viewBox="0 0 668 190" fill="none" xmlns="http://www.w3.org/2000/svg">
<rect width="668" height="187" fill="white"/>
<path d="M35.35 124C26.65 126.1 23.05 131.95 23.05 137.65C23.05 144.85 30.4 150.7 38.35 150.7C41.2 150.7 44.95 149.8 47.8 147.85C55.6 142.6 57.85 129.1 58.75 114.1C58.9 111.85 58.9 109 58.9 106.15C58.9 101.8 58.75 95.35 58.6 90.25C58.45 84.1 58.3 77.65 58.3 71.5C58.3 63.55 58.75 54.85 60.4 45.55C51.7 54.7 41.05 67.9 41.05 82.3C41.05 89.2 46 93.55 49.3 100.15C49.75 101.05 49.9 101.8 49.9 102.7C49.9 108.1 42.85 113.65 39.7 115C33.25 110.95 26.35 103.45 26.35 91.45C26.35 81.25 30.7 70.6 36.1 61C41.95 50.65 49 42.85 53.5 39.4C56.95 36.7 62.5 35.65 67.75 35.65C74.35 35.65 80.8 37.15 80.8 39.25C80.8 39.55 80.65 39.7 80.5 40C76.9 45.25 76 56.8 76 69.4C76 83.5 77.2 97.6 77.2 112.75C77.2 129.1 71.5 143.5 60.4 152.95C54.7 157.9 44.05 161.05 34.45 161.05C25.75 161.05 17.05 158.5 11.8 152.8C8.65 149.5 7.45 145.6 7.45 141.55C7.45 131.05 16.15 120.4 27.7 120.4C28.6 120.4 34.45 120.55 35.35 124ZM147.551 145C149.201 145 151.001 144.1 152.801 142.6C156.551 139.45 160.151 133.9 160.901 129.25C162.701 129.55 165.101 131.65 165.101 135.4C165.101 136.3 164.801 137.65 164.351 138.85C162.851 143.05 159.401 148 155.051 151.3C152.201 153.55 149.201 154.9 146.801 154.9C142.601 154.9 131.801 152.8 127.901 140.8C126.701 136.75 126.251 132.4 126.251 128.05C126.251 122.5 126.851 116.65 127.301 110.95C127.601 106.9 128.201 102.1 128.201 98.2C128.201 93.85 127.451 90.7 124.901 90.7C123.551 90.7 121.601 92.95 119.501 96.7C116.801 101.65 113.651 109.15 110.951 117.1C105.851 131.35 101.501 147.25 101.501 151.75V152.8C101.501 154.3 100.751 154.9 99.7012 154.9C96.2512 154.9 88.9012 148.3 87.2512 138.1C86.8012 135.55 86.6512 133 86.6512 130.45C86.6512 125.65 87.2512 118 87.8512 111.25C88.4512 103 89.2012 94.3 89.2012 87.85C89.2012 84.7 89.0512 82.15 88.7512 80.05C89.5012 79.9 90.4012 79.75 91.3012 79.75C95.8012 79.75 100.751 82.75 103.151 88.3C104.051 90.25 104.201 93.85 104.201 97.75C104.201 106 102.701 115.6 102.701 120.85C102.701 120.7 102.851 120.55 102.851 120.25C103.601 117.4 106.151 107.65 109.901 98.5C113.051 90.85 116.351 83.8 119.351 81.7C121.601 80.05 124.151 79.3 126.851 79.3C134.201 79.3 142.151 84.85 144.101 91.15C144.851 93.7 145.151 97 145.151 100.6C145.151 106 144.551 112.15 144.101 117.55C143.951 120.1 143.051 127.3 143.051 133.6C143.051 138.4 143.201 145 147.551 145ZM170.764 79.3C172.564 74.2 178.264 71.95 184.714 71.95C185.764 71.95 189.964 72.4 193.114 73.3C195.214 73.9 196.714 75.1 196.714 76.3C196.714 78.25 193.114 78.7 191.614 80.65C190.414 82.15 189.664 84.55 189.664 86.65C189.664 88 189.964 89.35 190.714 90.7C193.414 95.65 196.714 101.95 196.714 101.95C201.214 110.95 206.164 119.35 206.164 130.3C206.164 134.5 204.964 140.05 201.214 147.25C204.514 145.3 206.764 144.1 211.114 140.65C215.164 137.35 217.564 133.6 219.214 129.25C220.864 129.85 223.414 131.05 223.414 135.25C223.414 140.65 220.264 144.55 216.364 147.7C208.864 153.7 197.314 157.15 189.814 157.15C177.514 157.15 160.414 153.55 154.264 141.25C153.214 139.15 152.764 136.75 152.764 134.35C152.764 130.3 154.114 126.4 158.314 124.9C158.464 125.2 158.764 125.65 159.214 126.1C161.314 121.45 163.564 115.9 165.514 109.6C167.614 103 169.564 95.95 170.914 89.2C170.464 87.25 170.164 85.3 170.164 83.5C170.164 82 170.314 80.65 170.764 79.3ZM172.414 118.3C170.014 125.2 166.264 132.25 164.914 136.6C165.664 139.75 175.564 146.2 182.014 146.2C183.064 146.2 183.964 146.05 184.864 145.6C187.414 144.25 188.314 141.25 188.314 137.65C188.314 131.2 185.464 122.65 183.664 118.15C181.714 113.2 179.464 108.4 176.914 103.75C175.564 108.55 174.064 113.5 172.414 118.3ZM236.871 154.6C226.071 154.6 220.971 148 218.271 140.2C217.221 137.2 216.921 131.8 216.921 124.15C216.921 115.15 217.371 103.45 217.971 91.45C217.971 89.8 218.121 87.25 218.271 85.3C213.021 85.15 208.971 84.85 208.221 84.85C208.221 84.85 207.621 82.9 207.621 81.1C207.621 79.9 207.921 78.85 208.821 78.55C210.921 77.95 214.371 77.65 218.421 77.5C218.571 73.45 218.571 70.15 218.571 65.2C218.571 58 218.571 53.65 220.071 49C220.971 48.1 222.321 47.65 223.821 47.65C228.171 47.65 233.721 51.85 236.121 61.9C236.421 63.1 236.571 65.8 236.571 69.85C236.571 72.1 236.571 74.5 236.421 77.2C239.271 77.2 241.821 77.35 244.221 77.35C247.071 77.35 249.471 77.2 251.121 76.9C251.421 77.65 251.571 78.55 251.571 79.3C251.571 81.7 249.771 83.5 244.671 84.4C242.421 84.85 239.271 85.15 235.821 85.3C235.521 88.3 235.071 91.45 234.471 94.45C233.121 106.45 232.371 116.8 232.371 125.35C232.371 135.1 233.571 142.3 236.271 144.4C237.321 145.3 238.521 145.6 239.871 145.6C245.871 145.6 253.371 137.5 254.871 128.8C256.521 128.95 259.071 130.9 259.071 135.1C259.071 136.3 258.921 137.8 258.171 139.75C254.421 149.8 246.021 154.6 236.871 154.6ZM312.667 144.4C313.417 144.7 314.017 145 314.767 145C320.167 145 326.317 134.35 327.667 129.25C329.317 129.7 331.417 131.65 331.417 135.55C331.417 136.6 331.267 137.65 330.967 138.85C328.417 146.35 320.917 154.45 311.617 154.45C308.017 154.45 302.917 152.5 299.767 150.1C297.367 148.3 295.417 145.9 294.817 143.35C293.467 137.35 293.017 133.6 293.017 129.85C293.017 127.9 293.167 125.95 293.317 123.55C293.317 122.95 293.467 122.35 293.467 121.75C291.367 128.95 284.167 150.1 274.717 153.4C273.367 153.85 272.017 154 270.817 154C265.717 154 260.767 150.55 257.167 144.85C253.117 138.55 250.417 129.4 250.117 119.8V118.15C250.117 102.85 256.267 84.4 268.717 79.45C271.267 78.4 273.967 77.95 276.667 77.95C284.017 77.95 291.217 81.55 295.717 88C296.017 86.35 296.167 84.85 296.317 82.6C296.467 81.1 297.517 80.35 299.167 80.35C303.817 80.35 312.217 85.75 312.367 92.35C312.367 93.85 312.067 97.6 311.617 102.1C310.717 110.65 309.667 122.2 309.667 130.9C309.667 137.95 310.417 143.35 312.667 144.4ZM273.667 140.8C275.917 140.8 278.617 137.8 281.317 133.15C286.117 124.9 290.917 111.1 293.617 98.95C293.167 94.15 289.267 87.4 284.317 87.4C282.667 87.4 280.867 88.15 279.067 89.95C272.917 96.4 269.317 113.65 269.317 125.95C269.317 133.6 271.417 140.8 273.667 140.8ZM336.423 88.75C330.573 84.4 323.523 74.05 323.523 63.25C323.523 45.85 337.023 35.5 354.873 35.5C365.373 35.5 375.873 39.55 379.773 46.45C381.723 49.9 382.773 53.5 382.773 56.5C382.773 62.2 379.323 66.55 374.373 68.35C372.723 68.95 371.223 69.25 369.423 69.25C368.073 69.25 366.723 69.1 364.923 68.8C365.223 66.7 365.373 64.45 365.373 61.75C365.373 53.8 363.273 44.65 354.723 44.65C346.173 44.65 342.423 51.4 342.423 60.7C342.423 63.85 342.873 67.15 343.623 70.45C344.673 74.65 347.073 79.3 350.073 83.8C352.923 82.75 356.823 82.3 360.573 82.3C364.623 82.3 368.523 82.75 371.373 83.5C378.423 85.15 381.573 89.8 381.573 94.75C381.573 101.35 375.423 105.85 368.673 105.85C362.373 105.85 355.023 102.55 347.673 97.75C340.323 104.05 335.673 113.65 335.673 124.15C335.673 137.35 343.623 153.1 358.773 153.1C369.273 153.1 377.823 146.05 381.873 136C383.973 131.05 385.173 125.65 385.173 120.25C385.173 118.75 385.023 117.25 384.873 115.75C389.673 115.75 394.923 117.25 396.573 122.95C397.173 124.75 397.323 126.7 397.323 128.5C397.323 138.85 389.523 149.35 379.923 154.75C371.523 159.55 361.473 161.95 352.773 161.95C337.923 161.95 327.573 156.85 320.973 149.95C314.823 143.5 311.823 135.4 311.823 126.85C311.823 110.65 322.023 95.35 336.423 88.75ZM367.773 92.5C366.273 91.9 363.273 91.75 360.723 91.75C359.073 91.75 357.423 91.75 356.823 92.05C356.823 92.05 360.123 95.2 364.773 96.85C365.673 97.15 366.573 97.3 367.323 97.3C369.273 97.3 370.323 96.25 370.323 95.2C370.323 94.3 369.573 93.25 367.773 92.5ZM439.818 130.75C436.518 138.55 430.818 152.05 425.268 154.15C424.368 154.45 423.318 154.6 422.268 154.6C418.518 154.6 413.868 152.5 409.968 148C406.968 144.4 404.418 139.3 402.918 132.55C402.018 128.35 401.568 123.85 401.568 119.35C401.568 108.25 404.418 96.55 410.868 87.4C415.068 81.4 421.068 78.55 428.718 78.55C432.018 78.55 435.168 79.15 438.018 80.35V79C438.018 62.5 438.618 47.35 441.168 40.3C442.218 37.15 445.368 35.5 449.118 35.5C452.868 35.5 456.918 37 460.368 39.7C464.118 42.7 466.968 47.5 466.968 53.8C466.968 66.55 459.768 87.1 457.368 93.7C456.918 100.45 456.468 107.2 456.468 114.1C456.468 117.4 456.618 120.7 456.768 124C457.368 134.2 459.018 140.95 461.418 142.3C462.318 142.75 463.068 143.05 463.968 143.05C466.518 143.05 468.768 140.95 470.718 138.4C472.818 135.55 474.468 131.8 475.068 129.1C476.868 129.4 479.118 131.2 479.118 134.95C479.118 135.7 479.118 136.75 478.818 137.65C477.618 142.45 474.618 147.25 470.418 150.7C466.818 153.7 462.318 155.65 457.668 155.65C453.768 155.65 446.868 152.8 443.268 145.45C441.618 142 440.268 133.75 439.818 130.75ZM424.518 140.35C426.768 140.35 429.168 136.9 431.868 131.35C434.118 126.7 436.518 120.85 438.768 114.4C438.468 108.7 438.168 98.65 438.018 87.7C437.418 87.55 436.818 87.55 436.218 87.55C434.118 87.55 431.568 88.3 429.018 90.7C422.418 96.55 419.418 112.45 419.418 124.3C419.418 132.85 421.068 140.35 424.518 140.35ZM451.518 80.8C451.518 80.8 453.168 76.3 454.668 71.05C456.018 66.4 457.218 61 457.218 57.55C457.218 55.45 456.918 52 453.918 52C451.218 52.3 450.318 58.9 450.318 65.5C450.318 71.95 451.068 76.3 451.518 80.8ZM474.023 142.3C471.923 136 471.773 130.75 471.773 125.05C471.773 117.85 472.523 109.9 473.123 101.8C473.873 93.4 474.923 84.7 474.923 76H476.123C480.323 76 486.323 78.1 489.623 85.15C490.973 88.15 491.423 91.6 491.423 95.5C491.423 99.4 490.973 103.75 490.673 108.4C490.073 116.05 489.173 123.7 489.173 131.8C489.173 136.3 489.323 140.35 490.973 142.45C491.723 143.5 492.923 143.95 494.423 143.95C495.923 143.95 498.023 142.6 499.523 141.1C503.423 137.5 506.423 131.2 506.873 129.1C508.673 129.1 510.923 131.65 510.923 134.2C510.923 136.6 509.873 140.05 508.373 142.75C504.173 150.25 498.323 154.6 491.873 154.6C482.573 154.6 476.273 148.9 474.023 142.3ZM480.923 46.9C483.923 46.9 487.373 48.1 490.373 50.05C493.973 52.3 496.673 55.75 496.673 59.95C496.673 64.15 492.323 66.1 488.273 66.1C483.773 66.1 478.673 63.7 475.373 60.1C473.423 57.85 472.373 55.45 472.373 53.35C472.373 52 472.823 50.8 473.573 49.75C474.923 47.95 477.473 46.9 480.923 46.9ZM526.178 154.6C515.378 154.6 510.278 148 507.578 140.2C506.528 137.2 506.228 131.8 506.228 124.15C506.228 115.15 506.678 103.45 507.278 91.45C507.278 89.8 507.428 87.25 507.578 85.3C502.328 85.15 498.278 84.85 497.528 84.85C497.528 84.85 496.928 82.9 496.928 81.1C496.928 79.9 497.228 78.85 498.128 78.55C500.228 77.95 503.678 77.65 507.728 77.5C507.878 73.45 507.878 70.15 507.878 65.2C507.878 58 507.878 53.65 509.378 49C510.278 48.1 511.628 47.65 513.128 47.65C517.478 47.65 523.028 51.85 525.428 61.9C525.728 63.1 525.878 65.8 525.878 69.85C525.878 72.1 525.878 74.5 525.728 77.2C528.578 77.2 531.128 77.35 533.528 77.35C536.378 77.35 538.778 77.2 540.428 76.9C540.728 77.65 540.878 78.55 540.878 79.3C540.878 81.7 539.078 83.5 533.978 84.4C531.728 84.85 528.578 85.15 525.128 85.3C524.828 88.3 524.378 91.45 523.778 94.45C522.428 106.45 521.678 116.8 521.678 125.35C521.678 135.1 522.878 142.3 525.578 144.4C526.628 145.3 527.828 145.6 529.178 145.6C535.178 145.6 542.678 137.5 544.178 128.8C545.828 128.95 548.378 130.9 548.378 135.1C548.378 136.3 548.228 137.8 547.478 139.75C543.728 149.8 535.328 154.6 526.178 154.6ZM615.324 115.3C610.824 120.55 603.924 123.4 595.374 124.6C594.024 136.15 590.574 146.8 582.474 151.9C579.624 153.7 575.874 154.6 571.974 154.6C561.924 154.6 550.224 149.2 545.724 140.95C541.374 133.3 539.574 123.7 539.574 114.7C539.574 100.75 543.924 87.4 551.424 81.85C554.424 79.45 557.424 78.4 560.274 78.25C562.674 77.05 565.224 76.6 567.924 76.6C571.224 76.6 574.674 77.35 577.824 78.55C585.324 81.4 590.274 86.8 592.674 93.85C594.474 99.55 595.674 106.45 595.974 113.35C599.724 112.6 603.324 111.25 606.324 109.45C609.924 107.35 612.774 104.35 614.124 100.45C616.074 101.65 618.474 104.05 618.474 107.5C618.474 109.45 617.574 112.6 615.324 115.3ZM569.424 108.85C572.874 112.15 578.274 113.95 582.624 114.1C582.774 112.6 582.924 110.8 582.924 109C582.924 104.8 582.324 100.45 581.124 97.3C578.724 91.3 573.474 87.1 569.274 87.1C567.774 87.1 566.424 87.7 565.224 88.9C563.574 90.85 562.824 93.1 562.824 95.5C562.824 100 565.374 104.8 569.424 108.85ZM558.924 116.05C558.924 122.65 559.824 128.8 561.324 133.75C563.274 140.5 566.424 145 569.874 145C570.474 145 571.074 144.85 571.674 144.55C573.474 143.8 575.274 141.4 576.924 137.8C578.574 134.2 579.924 129.55 580.974 124.75C577.074 124.15 573.174 123.25 569.424 121.9C565.674 120.55 562.224 118.6 558.924 116.05ZM621.727 135.85C621.727 142 621.877 147.25 622.327 153.1C621.277 153.7 620.077 153.85 618.877 153.85C614.077 153.85 608.977 149.8 607.477 145.75C605.677 141.25 605.077 130.9 605.077 119.95C605.077 113.8 605.227 105.55 605.377 99.7C605.527 94.9 605.677 90.55 605.677 87.1C605.677 83.95 605.377 81.55 605.077 79.9C606.127 79.6 607.177 79.45 608.227 79.45C612.577 79.45 616.477 82.15 618.877 86.05C621.877 90.55 622.177 96.7 622.177 103V108.85C623.527 104.35 625.177 100.15 626.677 97.3C626.527 96.25 626.377 95.05 626.377 94C626.377 92.5 626.527 90.55 626.977 88.6C628.027 84.25 629.677 80.95 631.927 79.15C632.827 78.4 633.877 78.1 635.077 78.1C639.877 78.1 646.327 83.2 646.327 89.2C646.327 93.25 640.177 100.3 640.177 100.3C640.177 100.3 642.877 108.1 650.077 109.6C650.527 109.75 651.127 109.75 651.577 109.75C656.377 109.75 660.877 105.55 662.077 100.75C664.627 101.05 666.277 103.3 666.277 106.9C666.277 114.55 659.227 119.2 650.677 119.2C642.277 119.2 634.927 115.15 630.877 109C628.927 112.15 626.977 116.35 625.327 120.7C623.227 126.1 621.727 131.95 621.727 135.85Z" fill="black"/>
</svg>
